<svg id="prefix__Layer_1" version="1.1" viewBox="0 0 64 64" xml:space="preserve" xmlns="http://www.w3.org/2000/svg"><style></style><circle cx="32" cy="32" r="32" fill="#ffcb04"/><path d="M52.9 24.3H11.1c-1.1 0-2 .9-2 2V52c0 1.1.9 1.9 1.9 1.9h42c1.1 0 1.9-.9 1.9-1.9V26.3c0-1.1-.9-2-2-2z" fill="#eb5151" transform="translate(0 -8.2)"/><path d="M54.4 53.3c-.4.4-.9.6-1.4.6H11c-.5 0-1-.2-1.4-.6l17.9-17.9h8.9l3.7 3.7 14.3 14.2z" fill="#c64444" transform="translate(0 -8.2)"/><path d="M54.4 53.3c-.4.4-.9.6-1.4.6H11c-.5 0-1-.2-1.4-.6l17.9-17.9h8.9l3.7 3.7 14.3 14.2z" fill="#b84242" transform="matrix(1 0 0 -1 0 70)"/></svg>