<svg id="prefix__Layer_1" version="1.1" viewBox="0 0 64 64" xml:space="preserve" xmlns="http://www.w3.org/2000/svg"><style>.prefix__st14{fill:#b3b4b7}.prefix__st31{fill:#695652}</style><circle cx="32" cy="32" r="32" fill="#ffcb04"/><path d="M52.9 24.3H11.1c-1.1 0-2 .9-2 2V52c0 1.1.9 1.9 1.9 1.9h42c1.1 0 1.9-.9 1.9-1.9V26.3c0-1.1-.9-2-2-2z" fill="#eb5151"/><path d="M54.4 53.3c-.4.4-.9.6-1.4.6H11c-.5 0-1-.2-1.4-.6l17.9-17.9h8.9l3.7 3.7 14.3 14.2z" fill="#c64444"/><path class="prefix__st31" d="M17.9 24.3H11c-.5 0-1 .2-1.4.6l8.3 8.3v-8.9zM53 24.3h-6.9v8.9l-5.9 5.9 14.2-14.2c-.4-.4-.9-.6-1.4-.6z"/><path d="M17.9 19.9H12V11c0-1.6 1.3-3 3-3 1.6 0 3 1.3 3 3v8.9z" fill="#baca5b"/><path d="M43.1 8H15c1.6 0 3 1.3 3 3v22.1l5.9 5.9 3.7-3.7h8.9l3.7 3.7 5.9-5.9V11c0-1.7-1.4-3-3-3z" fill="#fff"/><path class="prefix__st14" d="M21 20.4h22v1.4H21zM21 23.4h22v1.4H21zM21 26.5h22v1.4H21zM24.7 29.5h14.6v1.4H24.7z"/></svg>