<?xml version="1.0" standalone="no"?>
<!DOCTYPE svg PUBLIC "-//W3C//DTD SVG 20010904//EN"
 "http://www.w3.org/TR/2001/REC-SVG-20010904/DTD/svg10.dtd">
<svg version="1.0" xmlns="http://www.w3.org/2000/svg"
 width="90.000000pt" height="90.000000pt" viewBox="0 0 90.000000 90.000000"
 preserveAspectRatio="xMidYMid meet">

<g transform="translate(0.000000,90.000000) scale(0.100000,-0.100000)"
fill="#000000" stroke="none">
<path d="M325 852 c-74 -25 -136 -65 -182 -115 -41 -44 -93 -134 -93 -159 0
-7 13 14 29 47 15 33 47 81 70 107 52 58 161 115 246 127 50 7 54 9 20 9 -22
1 -63 -6 -90 -16z"/>
<path d="M346 783 c-6 -14 -5 -15 5 -6 7 7 10 15 7 18 -3 3 -9 -2 -12 -12z"/>
<path d="M315 779 c-4 -6 -5 -12 -2 -15 2 -3 7 2 10 11 7 17 1 20 -8 4z"/>
<path d="M228 723 c7 -3 16 -2 19 1 4 3 -2 6 -13 5 -11 0 -14 -3 -6 -6z"/>
<path d="M171 664 c0 -11 3 -14 6 -6 3 7 2 16 -1 19 -3 4 -6 -2 -5 -13z"/>
<path d="M605 620 c-3 -5 -1 -10 4 -10 6 0 11 5 11 10 0 6 -2 10 -4 10 -3 0
-8 -4 -11 -10z"/>
<path d="M710 618 c0 -3 9 -6 20 -5 11 1 20 5 20 9 0 3 -9 6 -20 5 -11 -1 -20
-5 -20 -9z"/>
<path d="M760 620 c0 -5 5 -10 10 -10 6 0 10 5 10 10 0 6 -4 10 -10 10 -5 0
-10 -4 -10 -10z"/>
<path d="M805 620 c-3 -5 -1 -10 4 -10 6 0 11 5 11 10 0 6 -2 10 -4 10 -3 0
-8 -4 -11 -10z"/>
<path d="M310 479 c0 -5 5 -7 10 -4 6 3 10 8 10 11 0 2 -4 4 -10 4 -5 0 -10
-5 -10 -11z"/>
<path d="M466 477 c3 -10 9 -15 12 -12 3 3 0 11 -7 18 -10 9 -11 8 -5 -6z"/>
<path d="M427 409 c7 -7 15 -10 18 -7 3 3 -2 9 -12 12 -14 6 -15 5 -6 -5z"/>
<path d="M354 375 c-8 -19 2 -45 16 -45 6 0 9 14 8 30 -2 32 -15 40 -24 15z
m13 -27 c-3 -8 -6 -5 -6 6 -1 11 2 17 5 13 3 -3 4 -12 1 -19z"/>
<path d="M455 380 c-4 -6 -11 -7 -17 -4 -7 4 -8 2 -4 -5 6 -9 11 -9 22 0 14
11 18 19 10 19 -3 0 -8 -5 -11 -10z"/>
<path d="M821 277 c-32 -68 -117 -157 -184 -191 -30 -14 -85 -33 -123 -41 -64
-14 -65 -14 -15 -9 143 14 281 117 337 249 23 57 11 51 -15 -8z"/>
<path d="M158 269 c-5 -35 7 -39 16 -4 4 14 11 25 17 25 7 0 9 -10 5 -24 -4
-18 -2 -23 12 -22 16 1 30 19 31 42 1 7 -15 12 -38 12 -36 1 -39 -2 -43 -29z
m72 11 c0 -5 -5 -10 -11 -10 -5 0 -7 5 -4 10 3 6 8 10 11 10 2 0 4 -4 4 -10z"/>
<path d="M256 263 c-13 -21 -27 -48 -31 -60 -5 -19 -2 -23 14 -23 26 0 61 54
61 93 0 37 -15 34 -44 -10z m24 -18 c0 -12 -24 -55 -32 -55 -11 0 -10 17 2 41
9 17 30 27 30 14z"/>
<path d="M324 285 c-4 -11 -15 -39 -25 -62 l-18 -43 22 0 c14 0 18 3 10 8 -9
5 -7 18 7 47 10 22 19 33 20 25 5 -38 5 -46 -3 -62 -4 -10 -4 -18 1 -18 11 0
36 51 33 67 -1 7 3 22 9 33 6 11 7 20 1 20 -5 0 -12 -7 -15 -17 -6 -14 -8 -14
-21 3 -13 19 -14 19 -21 -1z"/>
<path d="M394 288 c-4 -6 -2 -14 4 -16 16 -5 15 -22 -1 -22 -8 0 -14 -6 -14
-12 0 -7 -3 -24 -7 -37 -6 -16 -5 -21 3 -17 6 4 11 13 11 20 0 7 9 25 20 39
14 18 17 28 9 33 -8 4 -7 9 2 15 11 7 10 9 -3 9 -9 0 -20 -5 -24 -12z"/>
<path d="M430 248 c-35 -74 -35 -75 -17 -59 13 10 17 10 17 1 0 -9 4 -9 17 1
11 10 14 10 9 2 -4 -7 -2 -13 3 -13 6 0 11 6 11 14 0 8 3 23 7 33 6 17 5 17
-15 -1 -17 -14 -22 -16 -22 -5 1 35 38 55 57 30 9 -13 8 -20 -4 -33 -17 -19
-10 -38 16 -38 40 0 57 54 20 65 -22 7 -22 36 0 43 10 3 12 -1 8 -17 -3 -11
-2 -21 3 -21 8 0 20 24 20 41 0 13 -44 11 -58 -3 -9 -9 -12 -9 -12 0 0 7 -8
12 -18 12 -11 0 -26 -19 -42 -52z m99 -44 c-6 -8 -15 -14 -20 -14 -14 0 -11
28 4 33 20 7 29 -4 16 -19z"/>
<path d="M570 274 c-13 -33 -13 -34 5 -27 12 4 11 -3 -5 -30 l-21 -36 60 2
c59 2 61 3 61 29 0 16 5 28 11 28 5 0 7 5 4 10 -3 6 -1 10 5 10 7 0 10 6 7 14
-3 8 -1 17 6 19 7 2 -8 5 -32 5 -24 0 -41 -2 -38 -5 3 -3 2 -16 -3 -29 -5 -13
-6 -24 -1 -24 5 0 12 11 15 25 4 14 11 25 16 25 15 0 12 -23 -6 -49 -14 -19
-14 -25 -3 -33 11 -8 10 -9 -3 -4 -10 3 -21 0 -25 -7 -4 -6 -12 10 -19 38 -7
27 -11 51 -9 54 3 2 5 -1 5 -8 0 -7 5 -9 10 -6 14 8 3 25 -16 25 -8 0 -19 -12
-24 -26z m28 -66 c-2 -6 -10 -14 -16 -16 -7 -2 -10 2 -6 12 7 18 28 22 22 4z"/>
<path d="M692 215 c-15 -32 -15 -35 1 -35 6 0 13 14 14 30 3 37 0 38 -15 5z"/>
<path d="M150 211 c-14 -28 -12 -36 5 -21 12 10 15 10 15 0 0 -9 4 -9 17 1 11
10 14 10 9 2 -4 -7 -3 -13 2 -13 5 0 12 11 14 25 6 27 -1 32 -20 13 -9 -9 -12
-9 -12 0 0 19 -18 14 -30 -7z"/>
</g>
</svg>
